<?xml version="1.0" encoding="iso-8859-1"?>
<!-- Uploaded to: SVG Repo, www.svgrepo.com, Generator: SVG Repo Mixer Tools -->
<svg height="800px" width="800px" version="1.1" id="Layer_1" xmlns="http://www.w3.org/2000/svg" xmlns:xlink="http://www.w3.org/1999/xlink" 
	 viewBox="0 0 512 512" xml:space="preserve">
<path style="fill:#B3404A;" d="M372.683,512H85.369c-31.426,0-56.993-25.567-56.993-56.993V56.993C28.378,25.567,53.943,0,85.369,0
	h202.699c14.534,0,28.376,5.474,38.98,15.414l84.613,79.327c11.445,10.73,18.013,25.885,18.013,41.577v13.008
	c0,7.641-6.197,13.838-13.838,13.838s-13.838-6.197-13.838-13.838v-13.008c0-8.072-3.376-15.868-9.264-21.386L308.12,35.605
	c-5.453-5.113-12.574-7.929-20.05-7.929H85.369c-16.165,0-29.317,13.151-29.317,29.317v398.016
	c0,16.165,13.151,29.317,29.317,29.317h287.314c16.165,0,29.317-13.151,29.317-29.317V224.686c0-7.641,6.197-13.838,13.838-13.838
	c7.641,0,13.838,6.197,13.838,13.838v230.321C429.675,486.433,404.108,512,372.683,512z"/>
<path style="fill:#F4B2B0;" d="M430.518,422.188H176.945c-21.687,0-39.268-17.581-39.268-39.268V258.417
	c0-21.687,17.581-39.268,39.268-39.268h253.573c21.687,0,39.268,17.581,39.268,39.268v124.503
	C469.786,404.607,452.205,422.188,430.518,422.188z"/>
<g>
	<path style="fill:#B3404A;" d="M430.518,436.027H176.945c-29.282,0-53.105-23.823-53.105-53.107V258.417
		c0-29.282,23.823-53.105,53.105-53.105h253.573c29.282,0,53.105,23.823,53.105,53.105v124.503
		C483.623,412.204,459.8,436.027,430.518,436.027z M176.945,232.988c-14.022,0-25.43,11.408-25.43,25.43v124.503
		c0,14.023,11.408,25.431,25.43,25.431h253.573c14.022,0,25.43-11.408,25.43-25.431V258.417c0-14.022-11.408-25.43-25.43-25.43
		L176.945,232.988L176.945,232.988z"/>
	<path style="fill:#B3404A;" d="M247.551,364.987c0-0.399,0.134-0.93,0.266-1.463l24.706-81.029
		c1.463-4.648,7.439-6.906,13.55-6.906c6.109,0,12.087,2.258,13.549,6.906l24.839,81.029c0.134,0.533,0.266,1.064,0.266,1.463
		c0,4.915-7.572,8.502-13.284,8.502c-3.32,0-5.977-1.064-6.775-3.852l-4.517-16.604h-28.029l-4.517,16.604
		c-0.797,2.79-3.453,3.852-6.775,3.852C255.122,373.487,247.551,369.902,247.551,364.987z M295.769,337.091l-9.696-35.599
		l-9.698,35.599H295.769z"/>
	<path style="fill:#B3404A;" d="M332.435,282.63c0-4.384,5.181-6.244,10.36-6.244c5.181,0,10.362,1.86,10.362,6.244v84.483
		c0,4.25-5.181,6.375-10.362,6.375c-5.18,0-10.36-2.126-10.36-6.375V282.63z"/>
</g>
</svg>